<mxfile host="app.diagrams.net" modified="2020-09-08T14:57:09.473Z" agent="5.0 (X11; Linux x86_64) AppleWebKit/537.36 (KHTML, like Gecko) Chrome/79.0.3945.117 Safari/537.36" etag="DWJIvC9v89uN4-OxNMT-" version="13.6.5" type="github">
  <diagram id="BgASO-WtDmuJOJy3E9rG" name="Page-1">
    <mxGraphModel dx="1422" dy="833" grid="1" gridSize="10" guides="1" tooltips="1" connect="1" arrows="1" fold="1" page="1" pageScale="1" pageWidth="827" pageHeight="1169" math="0" shadow="0">
      <root>
        <mxCell id="0" />
        <mxCell id="1" parent="0" />
        <mxCell id="HwGC9CHvmVJJBGZntoXC-12" value="" style="rounded=0;whiteSpace=wrap;html=1;" parent="1" vertex="1">
          <mxGeometry x="130" y="420" width="220" height="290" as="geometry" />
        </mxCell>
        <mxCell id="HwGC9CHvmVJJBGZntoXC-14" value="&lt;span&gt;Transakcija Ai&lt;/span&gt;" style="rounded=0;whiteSpace=wrap;html=1;" parent="1" vertex="1">
          <mxGeometry x="140" y="430" width="200" height="30" as="geometry" />
        </mxCell>
        <mxCell id="HwGC9CHvmVJJBGZntoXC-16" value="&lt;div&gt;&lt;span&gt;Ulaz:&lt;/span&gt;&lt;/div&gt;&lt;span&gt;&lt;div&gt;&lt;span&gt;X + Y iz zajedničke adrese&amp;nbsp;&lt;/span&gt;&lt;/div&gt;&lt;/span&gt;&lt;br&gt;&lt;span&gt;Izlaz:&lt;/span&gt;&lt;br&gt;&lt;span&gt;1.1. Xi na adresu koja pripada Alice&lt;br&gt;&lt;/span&gt;&amp;nbsp; &amp;nbsp; &amp;nbsp; &amp;nbsp;(samo nakon T klijetki)&lt;br&gt;&amp;nbsp; &amp;nbsp; &amp;nbsp; &amp;nbsp; &amp;nbsp; &lt;b&gt;&amp;nbsp;ili&lt;/b&gt;&lt;br&gt;&lt;span&gt;1.2. Xi na adresu koja pripada Bobu&lt;br&gt;&amp;nbsp; &amp;nbsp; &amp;nbsp; &amp;nbsp;(ako Bob pokaže ključ AKi)&lt;br&gt;&lt;br&gt;2. Yi na adresu koja pripada Bobu&lt;br&gt;&lt;/span&gt;" style="rounded=0;whiteSpace=wrap;html=1;align=left;" parent="1" vertex="1">
          <mxGeometry x="140" y="470" width="200" height="170" as="geometry" />
        </mxCell>
        <mxCell id="HwGC9CHvmVJJBGZntoXC-17" value="&lt;span&gt;Bob je potpisao&lt;/span&gt;" style="rounded=0;whiteSpace=wrap;html=1;" parent="1" vertex="1">
          <mxGeometry x="150" y="650" width="180" height="20" as="geometry" />
        </mxCell>
        <mxCell id="HwGC9CHvmVJJBGZntoXC-18" value="&lt;span&gt;Potreban je potpis od Alice&amp;nbsp;&lt;/span&gt;" style="rounded=0;whiteSpace=wrap;html=1;" parent="1" vertex="1">
          <mxGeometry x="150" y="680" width="180" height="20" as="geometry" />
        </mxCell>
        <mxCell id="HwGC9CHvmVJJBGZntoXC-19" value="" style="shape=cross;whiteSpace=wrap;html=1;" parent="1" vertex="1">
          <mxGeometry x="225" y="720" width="30" height="30" as="geometry" />
        </mxCell>
        <mxCell id="HwGC9CHvmVJJBGZntoXC-20" value="" style="rounded=0;whiteSpace=wrap;html=1;" parent="1" vertex="1">
          <mxGeometry x="380" y="420" width="220" height="290" as="geometry" />
        </mxCell>
        <mxCell id="HwGC9CHvmVJJBGZntoXC-21" value="&lt;span&gt;Transakcija Bi&lt;/span&gt;" style="rounded=0;whiteSpace=wrap;html=1;" parent="1" vertex="1">
          <mxGeometry x="390" y="430" width="200" height="30" as="geometry" />
        </mxCell>
        <mxCell id="HwGC9CHvmVJJBGZntoXC-22" value="&lt;div&gt;&lt;span&gt;Ulaz:&lt;/span&gt;&lt;/div&gt;&lt;span&gt;&lt;div&gt;&lt;span&gt;X + Y iz zajedničke adrese&amp;nbsp;&lt;/span&gt;&lt;/div&gt;&lt;/span&gt;&lt;br&gt;&lt;span&gt;Izlaz:&lt;/span&gt;&lt;br&gt;&lt;span&gt;1. Xi na adresu koja pripada Alice&lt;br&gt;&lt;/span&gt;&lt;br&gt;&lt;span&gt;1.2. Yi na adresu koja pripada Bobu&lt;br&gt;&lt;/span&gt;&amp;nbsp; &amp;nbsp; &amp;nbsp; &amp;nbsp;(samo nakon T klijetki)&lt;br&gt;&amp;nbsp; &amp;nbsp; &amp;nbsp; &amp;nbsp; &amp;nbsp;&amp;nbsp;&lt;b&gt;&amp;nbsp;ili&lt;/b&gt;&lt;span&gt;&lt;br&gt;2. Yi na adresu koja pripada Alice&lt;br&gt;&lt;/span&gt;&amp;nbsp; &amp;nbsp; &amp;nbsp; &amp;nbsp;(ako Alice pokaže ključ BKi)&lt;span&gt;&lt;br&gt;&lt;/span&gt;" style="rounded=0;whiteSpace=wrap;html=1;align=left;" parent="1" vertex="1">
          <mxGeometry x="390" y="470" width="200" height="170" as="geometry" />
        </mxCell>
        <mxCell id="HwGC9CHvmVJJBGZntoXC-23" value="Potreban je potpis od Boba" style="rounded=0;whiteSpace=wrap;html=1;" parent="1" vertex="1">
          <mxGeometry x="400" y="650" width="180" height="20" as="geometry" />
        </mxCell>
        <mxCell id="HwGC9CHvmVJJBGZntoXC-24" value="Alice je potpisala" style="rounded=0;whiteSpace=wrap;html=1;" parent="1" vertex="1">
          <mxGeometry x="400" y="680" width="180" height="20" as="geometry" />
        </mxCell>
        <mxCell id="HwGC9CHvmVJJBGZntoXC-25" value="" style="shape=cross;whiteSpace=wrap;html=1;" parent="1" vertex="1">
          <mxGeometry x="475" y="720" width="30" height="30" as="geometry" />
        </mxCell>
        <mxCell id="HwGC9CHvmVJJBGZntoXC-26" value="Bob otkriva ključ BK(i-1)" style="rounded=0;whiteSpace=wrap;html=1;" parent="1" vertex="1">
          <mxGeometry x="130" y="760" width="220" height="20" as="geometry" />
        </mxCell>
        <mxCell id="HwGC9CHvmVJJBGZntoXC-27" value="&lt;span&gt;Alice otkriva ključ BK(i-1)&lt;/span&gt;" style="rounded=0;whiteSpace=wrap;html=1;" parent="1" vertex="1">
          <mxGeometry x="380" y="760" width="220" height="20" as="geometry" />
        </mxCell>
      </root>
    </mxGraphModel>
  </diagram>
</mxfile>
